<mxfile host="app.diagrams.net" agent="Mozilla/5.0 (X11; Linux x86_64; rv:128.0) Gecko/20100101 Firefox/128.0" version="24.7.17">
  <diagram name="Seite-1" id="GOazD7f33v16FCmgG7de">
    <mxGraphModel dx="1134" dy="788" grid="1" gridSize="10" guides="1" tooltips="1" connect="1" arrows="1" fold="1" page="1" pageScale="1" pageWidth="827" pageHeight="1169" math="0" shadow="0">
      <root>
        <mxCell id="0" />
        <mxCell id="1" parent="0" />
        <mxCell id="qQ97mB8o1rQsWu9Zd28q-2" value="" style="rounded=1;whiteSpace=wrap;html=1;" vertex="1" parent="1">
          <mxGeometry x="204" y="260" width="106" height="270" as="geometry" />
        </mxCell>
        <mxCell id="qQ97mB8o1rQsWu9Zd28q-14" style="edgeStyle=orthogonalEdgeStyle;rounded=0;orthogonalLoop=1;jettySize=auto;html=1;" edge="1" parent="1" source="qQ97mB8o1rQsWu9Zd28q-1" target="qQ97mB8o1rQsWu9Zd28q-13">
          <mxGeometry relative="1" as="geometry" />
        </mxCell>
        <mxCell id="qQ97mB8o1rQsWu9Zd28q-1" value="" style="image;aspect=fixed;html=1;points=[];align=center;fontSize=12;image=img/lib/azure2/general/Code.svg;" vertex="1" parent="1">
          <mxGeometry x="220" y="280" width="64" height="52" as="geometry" />
        </mxCell>
        <mxCell id="qQ97mB8o1rQsWu9Zd28q-16" style="edgeStyle=orthogonalEdgeStyle;rounded=0;orthogonalLoop=1;jettySize=auto;html=1;entryX=0;entryY=0.5;entryDx=0;entryDy=0;" edge="1" parent="1" source="qQ97mB8o1rQsWu9Zd28q-3" target="qQ97mB8o1rQsWu9Zd28q-15">
          <mxGeometry relative="1" as="geometry" />
        </mxCell>
        <mxCell id="qQ97mB8o1rQsWu9Zd28q-3" value="" style="image;aspect=fixed;html=1;points=[];align=center;fontSize=12;image=img/lib/azure2/general/Code.svg;" vertex="1" parent="1">
          <mxGeometry x="220" y="360" width="64" height="52" as="geometry" />
        </mxCell>
        <mxCell id="qQ97mB8o1rQsWu9Zd28q-18" style="edgeStyle=orthogonalEdgeStyle;rounded=0;orthogonalLoop=1;jettySize=auto;html=1;" edge="1" parent="1" source="qQ97mB8o1rQsWu9Zd28q-4" target="qQ97mB8o1rQsWu9Zd28q-17">
          <mxGeometry relative="1" as="geometry" />
        </mxCell>
        <mxCell id="qQ97mB8o1rQsWu9Zd28q-4" value="" style="image;aspect=fixed;html=1;points=[];align=center;fontSize=12;image=img/lib/azure2/general/Code.svg;" vertex="1" parent="1">
          <mxGeometry x="220" y="440" width="64" height="52" as="geometry" />
        </mxCell>
        <mxCell id="qQ97mB8o1rQsWu9Zd28q-5" value="French" style="text;html=1;align=center;verticalAlign=middle;whiteSpace=wrap;rounded=0;" vertex="1" parent="1">
          <mxGeometry x="220" y="410" width="60" height="30" as="geometry" />
        </mxCell>
        <mxCell id="qQ97mB8o1rQsWu9Zd28q-6" value="German" style="text;html=1;align=center;verticalAlign=middle;whiteSpace=wrap;rounded=0;" vertex="1" parent="1">
          <mxGeometry x="220" y="330" width="60" height="30" as="geometry" />
        </mxCell>
        <mxCell id="qQ97mB8o1rQsWu9Zd28q-7" value="Chinese" style="text;html=1;align=center;verticalAlign=middle;whiteSpace=wrap;rounded=0;" vertex="1" parent="1">
          <mxGeometry x="220" y="492" width="60" height="30" as="geometry" />
        </mxCell>
        <mxCell id="qQ97mB8o1rQsWu9Zd28q-9" value="&lt;div align=&quot;center&quot;&gt;&lt;b&gt;Translation Memories&lt;/b&gt;&lt;/div&gt;" style="text;html=1;align=center;verticalAlign=middle;whiteSpace=wrap;rounded=0;" vertex="1" parent="1">
          <mxGeometry x="227" y="220" width="60" height="30" as="geometry" />
        </mxCell>
        <mxCell id="qQ97mB8o1rQsWu9Zd28q-11" style="edgeStyle=orthogonalEdgeStyle;rounded=0;orthogonalLoop=1;jettySize=auto;html=1;entryX=0;entryY=0.5;entryDx=0;entryDy=0;" edge="1" parent="1" source="qQ97mB8o1rQsWu9Zd28q-10" target="qQ97mB8o1rQsWu9Zd28q-2">
          <mxGeometry relative="1" as="geometry" />
        </mxCell>
        <mxCell id="qQ97mB8o1rQsWu9Zd28q-10" value="car" style="text;html=1;align=center;verticalAlign=middle;whiteSpace=wrap;rounded=0;" vertex="1" parent="1">
          <mxGeometry x="60" y="380" width="50" height="30" as="geometry" />
        </mxCell>
        <mxCell id="qQ97mB8o1rQsWu9Zd28q-13" value="Auto" style="text;html=1;align=center;verticalAlign=middle;whiteSpace=wrap;rounded=0;" vertex="1" parent="1">
          <mxGeometry x="414" y="291" width="50" height="30" as="geometry" />
        </mxCell>
        <mxCell id="qQ97mB8o1rQsWu9Zd28q-15" value="voiture" style="text;html=1;align=center;verticalAlign=middle;whiteSpace=wrap;rounded=0;" vertex="1" parent="1">
          <mxGeometry x="414" y="371" width="50" height="30" as="geometry" />
        </mxCell>
        <mxCell id="qQ97mB8o1rQsWu9Zd28q-17" value="è½¦" style="text;html=1;align=center;verticalAlign=middle;whiteSpace=wrap;rounded=0;" vertex="1" parent="1">
          <mxGeometry x="414" y="451" width="50" height="30" as="geometry" />
        </mxCell>
      </root>
    </mxGraphModel>
  </diagram>
</mxfile>
